<?xml version="1.0" encoding="UTF-8"?>
<svg enable-background="new 0 0 74.5 74.4" viewBox="0 0 74.5 74.4" xml:space="preserve" xmlns="http://www.w3.org/2000/svg">
    <path d="M37.249 74.4c20.4 0 37.2-16.8 37.2-37.2S57.649 0 37.249 0c-20.5 0-37.2 16.8-37.2 37.2s16.7 37.2 37.2 37.2zm0-2.1c-19.4 0-35.1-15.7-35.1-35.1 0-19.4 15.7-35.1 35.1-35.1 19.3 0 35.1 15.7 35.1 35.1 0 19.4-15.8 35.1-35.1 35.1zm-31.6-17.8c5.9-5.2 4.7-12.4 7.6-12.4 1.4 0 3 1.2 5 3.9 3.6 4.6 5.8 6.6 7.7 6.6 1.8 0 4.3-3.1 4.3-5.1 0-1.7-2.9-2.7-2.9-3.8 0-.7.8-1.1 2.1-1.1 7 0 10-5.8 10-8.5 0-2.6-3.5-4.9-3.5-6.4 0-.5.3-.9.7-.9.4 0 1.1.3 2.6 1.2 3.4 2.1 5.3 2 5.4-1.1 0-1.2.8-2 3.3-3.1 3.8-1.6 7.4-5.3 7.4-7.8 0-3.2-5.7-4.9-5.7-6.3 0-.8 2-2 5.5-3.2-4.9-4.5-12.8-5.6-17.8-5.6-22.8 0-36.1 19-36.1 36.3-.2 5.3 1.4 12.2 4.4 17.3zm48.5 14.7c7.3-4.4 12.8-10.3 16.7-17.6-.9-4.9-3-7.2-5.9-7.2-.9 0-1.9.2-3 .5-1.8.5-2.4.3-3.7-1.2-1.5-1.7-2.7-2.3-4.7-2.3-4 0-6 1.7-7.7 7.2-.6 2-1.5 2.7-4.8 3.8l-1.7.6c-2.7 1-3.4 3-2.3 7.5.9 3.9 2.6 5.8 5.1 5.8 2.4 0 4-1 6.1-1 2.8-.1 4.3 1.6 5.9 3.9zm-9.4-34.5c2.4 0 3.5-2.2 6.2-2.9 1.8-.5 2.7-2.4 2.7-3.9 0-1.3-.6-2.4-2-2.4s-2.8 1.1-3.7 3c-.5 1.1-1.3 1.6-3.3 2.2-1.6.5-2.1 1.1-2.1 2.2.1 1.3 1.1 1.8 2.2 1.8zm-17.3 24c1.6 0 2.6-.8 2.6-2.2 0-1-.8-1.7-1.9-1.7-4.5 0-4.7-2.5-6.8-2.5-1.2 0-2.1.7-2.1 1.7 0 .8.8 1.5 2 1.5 2.5 0 1.3 3.2 6.2 3.2zm6.5-6.8c2.1 0 4.2-2.4 4.2-4.7 0-2.7-1.1-4-2.4-4-1.4 0-2.3 1.7-2.3 4.2 0 1.4-1.3 1.5-1.3 2.9.1 1 .8 1.6 1.8 1.6z"/>
</svg>
